<svg xmlns="http://www.w3.org/2000/svg" viewBox="0 0 100 100" preserveAspectRatio="xMidYMid" width="185" height="185" style="shape-rendering: auto; display: block; background: transparent;" xmlns:xlink="http://www.w3.org/1999/xlink"><g><g transform="translate(50 50)">
<g>
<animateTransform attributeName="transform" type="rotate" values="0;40" keyTimes="0;1" dur="0.48076923076923084s" repeatCount="indefinite"></animateTransform><path d="M26.70205984563738 -4 L35.70205984563738 -4 L35.70205984563738 4 L26.70205984563738 4 A27 27 0 0 1 23.026115003327067 14.099575449408258 L23.026115003327067 14.099575449408258 L29.92051499139787 19.88466393658711 L24.778214113905555 26.013019481538937 L17.883814125834753 20.227930994360083 A27 27 0 0 1 8.575995044197079 25.60180284671193 L8.575995044197079 25.60180284671193 L10.138828643199453 34.465072623821804 L2.2603666191017915 35.854258045157245 L0.6975330200994179 26.990988268047374 A27 27 0 0 1 -9.88692830768093 25.124662159694356 L-9.88692830768093 25.124662159694356 L-14.386928307680929 32.9188907937543 L-21.31513153795644 28.918890793754304 L-16.81513153795644 21.124662159694356 A27 27 0 0 1 -23.723648023426477 12.891412818639122 L-23.723648023426477 12.891412818639122 L-32.180881610499654 15.969594108570142 L-34.917042757105 8.452053142282866 L-26.45980917003183 5.373871852351846 A27 27 0 0 1 -26.459809170031832 -5.37387185235184 L-26.459809170031832 -5.37387185235184 L-34.91704275710501 -8.452053142282857 L-32.180881610499654 -15.969594108570131 L-23.72364802342648 -12.891412818639115 A27 27 0 0 1 -16.815131537956447 -21.124662159694353 L-16.815131537956447 -21.124662159694353 L-21.31513153795645 -28.918890793754297 L-14.386928307680957 -32.918890793754294 L-9.886928307680954 -25.124662159694346 A27 27 0 0 1 0.6975330200994113 -26.990988268047374 L0.6975330200994113 -26.990988268047374 L2.2603666191017813 -35.854258045157245 L10.138828643199432 -34.46507262382181 L8.575995044197061 -25.601802846711937 A27 27 0 0 1 17.88381412583475 -20.227930994360083 L17.88381412583475 -20.227930994360083 L24.77821411390555 -26.01301948153894 L29.92051499139786 -19.88466393658713 L23.026115003327057 -14.099575449408276 A27 27 0 0 1 26.70205984563738 -3.999999999999999 M0 -20A20 20 0 1 0 0 20 A20 20 0 1 0 0 -20" fill="#5c9ead"></path></g></g><g></g></g><!-- [ldio] generated by https://loading.io --></svg>