<svg width="215" height="80" viewBox="0 0 215 80" fill="none" xmlns="http://www.w3.org/2000/svg">
<path d="M12 17H23.1457L46.6167 57.6531L38.1941 62.5159L12 17Z" fill="#F7F7F7"/>
<path d="M29.7654 57.6531L38.188 62.5159L64.4531 17H53.2364L29.7654 57.6531Z" fill="#36F760"/>
<path d="M66.852 66.376C64.2827 66.376 61.964 65.8277 59.896 64.731C57.8593 63.6343 56.2457 62.0677 55.055 60.031C53.8957 57.9943 53.316 55.613 53.316 52.887C53.316 50.1923 53.9113 47.8267 55.102 45.79C56.2927 43.722 57.922 42.1397 59.99 41.043C62.058 39.9463 64.3767 39.398 66.946 39.398C69.5153 39.398 71.834 39.9463 73.902 41.043C75.97 42.1397 77.5993 43.722 78.79 45.79C79.9807 47.8267 80.576 50.1923 80.576 52.887C80.576 55.5817 79.965 57.963 78.743 60.031C77.5523 62.0677 75.9073 63.6343 73.808 64.731C71.74 65.8277 69.4213 66.376 66.852 66.376ZM66.852 59.42C68.3873 59.42 69.6877 58.856 70.753 57.728C71.8497 56.6 72.398 54.9863 72.398 52.887C72.398 50.7877 71.8653 49.174 70.8 48.046C69.766 46.918 68.4813 46.354 66.946 46.354C65.3793 46.354 64.079 46.918 63.045 48.046C62.011 49.1427 61.494 50.7563 61.494 52.887C61.494 54.9863 61.9953 56.6 62.998 57.728C64.032 58.856 65.3167 59.42 66.852 59.42ZM99.4568 59.185V66H95.3678C92.4538 66 90.1821 65.295 88.5528 63.885C86.9234 62.4437 86.1088 60.1093 86.1088 56.882V46.448H82.9128V39.774H86.1088V33.382H94.1458V39.774H99.4098V46.448H94.1458V56.976C94.1458 57.7593 94.3338 58.3233 94.7098 58.668C95.0858 59.0127 95.7124 59.185 96.5898 59.185H99.4568ZM111.971 44.145C112.911 42.7037 114.086 41.5757 115.496 40.761C116.906 39.915 118.472 39.492 120.196 39.492V47.999H117.987C115.981 47.999 114.477 48.4377 113.475 49.315C112.472 50.161 111.971 51.665 111.971 53.827V66H103.934V39.774H111.971V44.145ZM149.934 39.774V66H141.897V62.428C141.082 63.5873 139.97 64.5273 138.56 65.248C137.181 65.9373 135.646 66.282 133.954 66.282C131.949 66.282 130.178 65.8433 128.643 64.966C127.108 64.0573 125.917 62.757 125.071 61.065C124.225 59.373 123.802 57.3833 123.802 55.096V39.774H131.792V54.015C131.792 55.7697 132.246 57.1327 133.155 58.104C134.064 59.0753 135.286 59.561 136.821 59.561C138.388 59.561 139.625 59.0753 140.534 58.104C141.443 57.1327 141.897 55.7697 141.897 54.015V39.774H149.934ZM189.171 39.492C192.43 39.492 195.015 40.479 196.926 42.453C198.869 44.427 199.84 47.1687 199.84 50.678V66H191.85V51.759C191.85 50.067 191.396 48.7667 190.487 47.858C189.61 46.918 188.388 46.448 186.821 46.448C185.254 46.448 184.017 46.918 183.108 47.858C182.231 48.7667 181.792 50.067 181.792 51.759V66H173.802V51.759C173.802 50.067 173.348 48.7667 172.439 47.858C171.562 46.918 170.34 46.448 168.773 46.448C167.206 46.448 165.969 46.918 165.06 47.858C164.183 48.7667 163.744 50.067 163.744 51.759V66H155.707V39.774H163.744V43.064C164.559 41.9673 165.624 41.1057 166.94 40.479C168.256 39.821 169.744 39.492 171.405 39.492C173.379 39.492 175.134 39.915 176.669 40.761C178.236 41.607 179.458 42.8133 180.335 44.38C181.244 42.9387 182.481 41.7637 184.048 40.855C185.615 39.9463 187.322 39.492 189.171 39.492Z" fill="#1E1E1E"/>
</svg>
